<?xml version="1.0" encoding="UTF-8"?>
<svg xmlns="http://www.w3.org/2000/svg" width="1360" height="740" viewBox="0 0 1360 740" font-family="Helvetica, Arial, sans-serif">
<defs>
<marker id="arr_0E8088" markerWidth="11" markerHeight="11" refX="8.5" refY="3.2" orient="auto" markerUnits="userSpaceOnUse"><path d="M0,0 L9,3.2 L0,6.4 Z" fill="#0E8088"/></marker>
<marker id="arr_3F61A8" markerWidth="11" markerHeight="11" refX="8.5" refY="3.2" orient="auto" markerUnits="userSpaceOnUse"><path d="M0,0 L9,3.2 L0,6.4 Z" fill="#3F61A8"/></marker>
<marker id="arr_445" markerWidth="11" markerHeight="11" refX="8.5" refY="3.2" orient="auto" markerUnits="userSpaceOnUse"><path d="M0,0 L9,3.2 L0,6.4 Z" fill="#445"/></marker>
<marker id="arr_5B6B7B" markerWidth="11" markerHeight="11" refX="8.5" refY="3.2" orient="auto" markerUnits="userSpaceOnUse"><path d="M0,0 L9,3.2 L0,6.4 Z" fill="#5B6B7B"/></marker>
<marker id="arr_D6B656" markerWidth="11" markerHeight="11" refX="8.5" refY="3.2" orient="auto" markerUnits="userSpaceOnUse"><path d="M0,0 L9,3.2 L0,6.4 Z" fill="#D6B656"/></marker>
</defs>
<rect x="0" y="0" width="1360" height="740" fill="#FFFFFF"/>
<text x="40" y="40" font-size="22" font-weight="700" fill="#10202E">D2 · Ba chế độ Backend Runtime của DesktopApp</text>
<line x1="40" y1="50" x2="1320" y2="50" stroke="#10202E" stroke-width="1.5"/>
<rect x="40" y="64" width="1280" height="96" rx="11" fill="#FBFBFB" stroke="#999999" stroke-width="1.6"/>
<path d="M40.0,98.0 L40.0,75.0 A11,11 0 0 1 51.0,64.0 L1309.0,64.0 A11,11 0 0 1 1320.0,75.0 L1320.0,98.0 Z" fill="#F5F5F5" stroke="#999999" stroke-width="1.6"/>
<text x="54.0" y="88.0" font-size="14.5" font-weight="700" fill="#10202E">Quản lý chế độ runtime</text>
<rect x="40" y="186" width="400" height="380" rx="11" fill="#EEF3FB" stroke="#3F61A8" stroke-width="1.6"/>
<path d="M40.0,220.0 L40.0,197.0 A11,11 0 0 1 51.0,186.0 L429.0,186.0 A11,11 0 0 1 440.0,197.0 L440.0,220.0 Z" fill="#D4E1F5" stroke="#3F61A8" stroke-width="1.6"/>
<text x="54.0" y="210.0" font-size="14.5" font-weight="700" fill="#10202E">1 · Bundled Core (mặc định)</text>
<rect x="480" y="186" width="400" height="380" rx="11" fill="#E0F4F5" stroke="#0E8088" stroke-width="1.6"/>
<path d="M480.0,220.0 L480.0,197.0 A11,11 0 0 1 491.0,186.0 L869.0,186.0 A11,11 0 0 1 880.0,197.0 L880.0,220.0 Z" fill="#B0E3E6" stroke="#0E8088" stroke-width="1.6"/>
<text x="494.0" y="210.0" font-size="14.5" font-weight="700" fill="#10202E">2 · WebApp Runtime (external)</text>
<rect x="920" y="186" width="400" height="380" rx="11" fill="#FFFAEB" stroke="#D6B656" stroke-width="1.6"/>
<path d="M920.0,220.0 L920.0,197.0 A11,11 0 0 1 931.0,186.0 L1309.0,186.0 A11,11 0 0 1 1320.0,197.0 L1320.0,220.0 Z" fill="#FFF2CC" stroke="#D6B656" stroke-width="1.6"/>
<text x="934.0" y="210.0" font-size="14.5" font-weight="700" fill="#10202E">3 · Remote Server</text>
<path d="M464.0,124.0 L494.0,124.0" fill="none" stroke="#5B6B7B" stroke-width="1.7" marker-end="url(#arr_5B6B7B)"/>
<rect x="466.0" y="115.0" width="26.0" height="16" rx="3" fill="#FFFFFF" stroke="#5B6B7B" stroke-width="0.8" opacity="0.95"/>
<text x="479.0" y="126.5" font-size="10.5" fill="#243B4A" text-anchor="middle">ghi</text>
<path d="M684.0,148.0 L560.0,172.0 L240.0,172.0 L240.0,186.0" fill="none" stroke="#3F61A8" stroke-width="1.7" marker-end="url(#arr_3F61A8)"/>
<rect x="410.2" y="163.0" width="92.0" height="16" rx="3" fill="#FFFFFF" stroke="#3F61A8" stroke-width="0.8" opacity="0.95"/>
<text x="456.2" y="174.5" font-size="10.5" fill="#243B4A" text-anchor="middle">mode = bundled</text>
<path d="M684.0,148.0 L680.0,186.0" fill="none" stroke="#0E8088" stroke-width="1.7" marker-end="url(#arr_0E8088)"/>
<rect x="633.0" y="158.0" width="98.0" height="16" rx="3" fill="#FFFFFF" stroke="#0E8088" stroke-width="0.8" opacity="0.95"/>
<text x="682.0" y="169.5" font-size="10.5" fill="#243B4A" text-anchor="middle">mode = external</text>
<path d="M684.0,148.0 L810.0,172.0 L1120.0,172.0 L1120.0,186.0" fill="none" stroke="#D6B656" stroke-width="1.7" marker-end="url(#arr_D6B656)"/>
<rect x="864.9" y="163.0" width="86.0" height="16" rx="3" fill="#FFFFFF" stroke="#D6B656" stroke-width="0.8" opacity="0.95"/>
<text x="907.9" y="174.5" font-size="10.5" fill="#243B4A" text-anchor="middle">mode = remote</text>
<rect x="64.0" y="100.0" width="400.0" height="48.0" rx="9" fill="#F5F5F5" stroke="#999999" stroke-width="1.6"/>
<text x="264.0" y="120.7" font-size="11.0" font-weight="400" fill="#15202B" text-anchor="middle">Trình chọn runtime (trang splash đóng gói)</text>
<text x="264.0" y="134.1" font-size="11.0" font-weight="400" fill="#15202B" text-anchor="middle">nguồn DUY NHẤT được phép gọi lệnh Tauri</text>
<rect x="494.0" y="100.0" width="380.0" height="48.0" rx="9" fill="#F5F5F5" stroke="#999999" stroke-width="1.6"/>
<text x="684.0" y="120.5" font-size="11.5" font-weight="400" fill="#15202B" text-anchor="middle">runtime.json — thư mục cấu hình ứng dụng</text>
<text x="684.0" y="134.6" font-size="11.5" font-weight="400" fill="#15202B" text-anchor="middle">(không chứa bí mật)</text>
<rect x="904.0" y="100.0" width="392.0" height="48.0" rx="9" fill="#F5F5F5" stroke="#999999" stroke-width="1.6"/>
<text x="1100.0" y="120.7" font-size="11.0" font-weight="400" fill="#15202B" text-anchor="middle">Lệnh Tauri: get_state · pick_folder · validate</text>
<text x="1100.0" y="134.1" font-size="11.0" font-weight="400" fill="#15202B" text-anchor="middle">· test_remote · apply · resume</text>
<rect x="64.0" y="226.0" width="352.0" height="64.0" rx="9" fill="#D4E1F5" stroke="#3F61A8" stroke-width="1.6"/>
<text x="240.0" y="254.7" font-size="11.0" font-weight="400" fill="#15202B" text-anchor="middle">Shell chạy sidecar PyInstaller</text>
<text x="240.0" y="268.1" font-size="11.0" font-weight="400" fill="#15202B" text-anchor="middle">(desktop_server.py — Flask không đổi)</text>
<rect x="64.0" y="308.0" width="352.0" height="64.0" rx="9" fill="#D4E1F5" stroke="#3F61A8" stroke-width="1.6"/>
<text x="240.0" y="343.4" font-size="11.0" font-weight="400" fill="#15202B" text-anchor="middle">UI Gateway chạy như thread trong sidecar</text>
<rect x="64.0" y="390.0" width="352.0" height="64.0" rx="9" fill="#D4E1F5" stroke="#3F61A8" stroke-width="1.6"/>
<text x="240.0" y="425.4" font-size="11.0" font-weight="400" fill="#15202B" text-anchor="middle">OCR · LLM cục bộ · RAG chạy trên máy người dùng</text>
<rect x="64.0" y="472.0" width="352.0" height="64.0" rx="9" fill="#D4E1F5" stroke="#3F61A8" stroke-width="1.6"/>
<text x="240.0" y="507.4" font-size="11.0" font-weight="400" fill="#15202B" text-anchor="middle">Dữ liệu: app data dir riêng của DesktopApp</text>
<rect x="504.0" y="226.0" width="352.0" height="64.0" rx="9" fill="#B0E3E6" stroke="#0E8088" stroke-width="1.6"/>
<text x="680.0" y="254.7" font-size="11.0" font-weight="400" fill="#15202B" text-anchor="middle">Người dùng chọn thư mục bản WebApp đã cài</text>
<text x="680.0" y="268.1" font-size="11.0" font-weight="400" fill="#15202B" text-anchor="middle">→ shell kiểm tra venv hợp lệ</text>
<rect x="504.0" y="308.0" width="352.0" height="64.0" rx="9" fill="#B0E3E6" stroke="#0E8088" stroke-width="1.6"/>
<text x="680.0" y="343.4" font-size="11.0" font-weight="400" fill="#15202B" text-anchor="middle">venv của WebApp chạy desktop-shim/desktop_server.py</text>
<rect x="504.0" y="390.0" width="352.0" height="64.0" rx="9" fill="#B0E3E6" stroke="#0E8088" stroke-width="1.6"/>
<text x="680.0" y="418.7" font-size="11.0" font-weight="400" fill="#15202B" text-anchor="middle">MODEL_DIR · GLM dùng từ WebApp —</text>
<text x="680.0" y="432.1" font-size="11.0" font-weight="400" fill="#15202B" text-anchor="middle">DB / uploads VẪN thuộc DesktopApp</text>
<rect x="504.0" y="472.0" width="352.0" height="64.0" rx="9" fill="#B0E3E6" stroke="#0E8088" stroke-width="1.6"/>
<text x="680.0" y="507.4" font-size="11.0" font-weight="400" fill="#15202B" text-anchor="middle">GLM MLX helper — chỉ trên macOS Apple Silicon</text>
<rect x="944.0" y="226.0" width="352.0" height="64.0" rx="9" fill="#FFF2CC" stroke="#D6B656" stroke-width="1.6"/>
<text x="1120.0" y="254.7" font-size="11.0" font-weight="400" fill="#15202B" text-anchor="middle">Chỉ UI Gateway chạy cục bộ</text>
<text x="1120.0" y="268.1" font-size="11.0" font-weight="400" fill="#15202B" text-anchor="middle">(SMARTDOCS_GATEWAY_ONLY=1)</text>
<rect x="944.0" y="308.0" width="352.0" height="64.0" rx="9" fill="#FFF2CC" stroke="#D6B656" stroke-width="1.6"/>
<text x="1120.0" y="343.4" font-size="11.0" font-weight="400" fill="#15202B" text-anchor="middle">Không OCR / LLM / DB nào khởi động trên máy</text>
<rect x="944.0" y="390.0" width="352.0" height="64.0" rx="9" fill="#FFF2CC" stroke="#D6B656" stroke-width="1.6"/>
<text x="1120.0" y="418.7" font-size="11.0" font-weight="400" fill="#15202B" text-anchor="middle">Upstream: server SmartDocs từ xa — HTTPS</text>
<text x="1120.0" y="432.1" font-size="11.0" font-weight="400" fill="#15202B" text-anchor="middle">(hoặc HTTP IP LAN riêng + xác nhận)</text>
<rect x="944.0" y="472.0" width="352.0" height="64.0" rx="9" fill="#FFF2CC" stroke="#D6B656" stroke-width="1.6"/>
<text x="1120.0" y="500.7" font-size="11.0" font-weight="400" fill="#15202B" text-anchor="middle">Server từ xa CHỈ là backend —</text>
<text x="1120.0" y="514.1" font-size="11.0" font-weight="400" fill="#15202B" text-anchor="middle">không bao giờ là origin của UI</text>
<rect x="40.0" y="600.0" width="1280.0" height="56.0" rx="9" fill="#DAE8FC" stroke="#6C8EBF" stroke-width="1.6"/>
<text x="680.0" y="632.0" font-size="13.0" font-weight="700" fill="#15202B" text-anchor="middle">Giao diện DesktopApp + UI Gateway GIỮ NGUYÊN trong cả 3 chế độ — chuyển chế độ chỉ thay đổi backend đích, không thay đổi UI</text>
</svg>